<?xml version="1.0" encoding="UTF-8" standalone="no"?>
<!DOCTYPE svg PUBLIC "-//W3C//DTD SVG 1.1//EN"
 "http://www.w3.org/Graphics/SVG/1.1/DTD/svg11.dtd">
<!-- Generated by graphviz version 2.30.1 (20150305.2338)
 -->
<!-- Title: G Pages: 1 -->
<svg width="225pt" height="335pt"
 viewBox="0.00 0.00 225.28 335.00" xmlns="http://www.w3.org/2000/svg" xmlns:xlink="http://www.w3.org/1999/xlink">
<g id="graph0" class="graph" transform="scale(1 1) rotate(0) translate(4 331)">
<title>G</title>
<polygon fill="white" stroke="white" points="-4,5 -4,-331 222.285,-331 222.285,5 -4,5"/>
<g id="clust1" class="cluster"><title>cluster_0</title>
<polygon fill="none" stroke="black" points="11.2847,-136 11.2847,-283 209.285,-283 209.285,-136 11.2847,-136"/>
<text text-anchor="middle" x="110.285" y="-267.8" font-family="Times,serif" font-size="14.00">Dataloader</text>
</g>
<!-- Model 1 -->
<g id="node1" class="node"><title>Model 1</title>
<ellipse fill="#b2dfee" stroke="#b2dfee" cx="60.2847" cy="-234" rx="40.4202" ry="18"/>
<text text-anchor="middle" x="60.2847" y="-230.3" font-family="Times,serif" font-size="14.00">Model 1</text>
</g>
<!-- Model 2 -->
<g id="node2" class="node"><title>Model 2</title>
<ellipse fill="#b2dfee" stroke="#b2dfee" cx="60.2847" cy="-162" rx="40.4202" ry="18"/>
<text text-anchor="middle" x="60.2847" y="-158.3" font-family="Times,serif" font-size="14.00">Model 2</text>
</g>
<!-- Model 1&#45;&gt;Model 2 -->
<g id="edge1" class="edge"><title>Model 1&#45;&gt;Model 2</title>
<path fill="none" stroke="black" d="M60.2847,-215.697C60.2847,-207.983 60.2847,-198.712 60.2847,-190.112"/>
<polygon fill="black" stroke="black" points="63.7848,-190.104 60.2847,-180.104 56.7848,-190.104 63.7848,-190.104"/>
</g>
<!-- Model 4 -->
<g id="node5" class="node"><title>Model 4</title>
<ellipse fill="#b2dfee" stroke="#b2dfee" cx="102.285" cy="-90" rx="40.4202" ry="18"/>
<text text-anchor="middle" x="102.285" y="-86.3" font-family="Times,serif" font-size="14.00">Model 4</text>
</g>
<!-- Model 2&#45;&gt;Model 4 -->
<g id="edge5" class="edge"><title>Model 2&#45;&gt;Model 4</title>
<path fill="none" stroke="black" d="M70.2381,-144.411C75.3117,-135.955 81.588,-125.494 87.2377,-116.078"/>
<polygon fill="black" stroke="black" points="90.2589,-117.846 92.4027,-107.47 84.2564,-114.244 90.2589,-117.846"/>
</g>
<!-- Model 3 -->
<g id="node3" class="node"><title>Model 3</title>
<ellipse fill="#b2dfee" stroke="#b2dfee" cx="160.285" cy="-234" rx="40.4202" ry="18"/>
<text text-anchor="middle" x="160.285" y="-230.3" font-family="Times,serif" font-size="14.00">Model 3</text>
</g>
<!-- Model 3&#45;&gt;Model 4 -->
<g id="edge6" class="edge"><title>Model 3&#45;&gt;Model 4</title>
<path fill="none" stroke="black" d="M153.404,-216.153C143.418,-191.706 124.819,-146.171 113.021,-117.286"/>
<polygon fill="black" stroke="black" points="116.178,-115.759 109.157,-107.825 109.698,-118.406 116.178,-115.759"/>
</g>
<!-- Raw data -->
<g id="node4" class="node"><title>Raw data</title>
<ellipse fill="#b2dfee" stroke="#b2dfee" cx="60.2847" cy="-309" rx="44.2946" ry="18"/>
<text text-anchor="middle" x="60.2847" y="-305.3" font-family="Times,serif" font-size="14.00">Raw data</text>
</g>
<!-- Raw data&#45;&gt;Model 1 -->
<g id="edge2" class="edge"><title>Raw data&#45;&gt;Model 1</title>
<path fill="none" stroke="black" d="M60.2847,-290.7C60.2847,-282.245 60.2847,-271.869 60.2847,-262.373"/>
<polygon fill="black" stroke="black" points="63.7847,-262.176 60.2847,-252.176 56.7847,-262.176 63.7847,-262.176"/>
</g>
<!-- Raw data&#45;&gt;Model 2 -->
<g id="edge3" class="edge"><title>Raw data&#45;&gt;Model 2</title>
<path fill="none" stroke="black" d="M26.3835,-297.466C19.9874,-293.901 14.1114,-289.192 10.2847,-283 -5.37045,-257.67 -0.709085,-243.674 10.2847,-216 15.0278,-204.06 23.8772,-193.252 32.8281,-184.557"/>
<polygon fill="black" stroke="black" points="35.2433,-187.092 40.2828,-177.772 30.5315,-181.915 35.2433,-187.092"/>
</g>
<!-- Raw data&#45;&gt;Model 3 -->
<g id="edge4" class="edge"><title>Raw data&#45;&gt;Model 3</title>
<path fill="none" stroke="black" d="M88.805,-295.168C95.7313,-291.591 102.959,-287.453 109.285,-283 119.589,-275.745 129.909,-266.498 138.543,-258.059"/>
<polygon fill="black" stroke="black" points="141.074,-260.477 145.653,-250.923 136.116,-255.536 141.074,-260.477"/>
</g>
<!-- Output -->
<g id="node6" class="node"><title>Output</title>
<ellipse fill="#b2dfee" stroke="#b2dfee" cx="102.285" cy="-18" rx="35.1455" ry="18"/>
<text text-anchor="middle" x="102.285" y="-14.3" font-family="Times,serif" font-size="14.00">Output</text>
</g>
<!-- Model 4&#45;&gt;Output -->
<g id="edge7" class="edge"><title>Model 4&#45;&gt;Output</title>
<path fill="none" stroke="black" d="M102.285,-71.6966C102.285,-63.9827 102.285,-54.7125 102.285,-46.1124"/>
<polygon fill="black" stroke="black" points="105.785,-46.1043 102.285,-36.1043 98.7848,-46.1044 105.785,-46.1043"/>
</g>
</g>
</svg>
