<?xml version="1.0" encoding="UTF-8" standalone="no"?>
<!DOCTYPE svg PUBLIC "-//W3C//DTD SVG 1.1//EN"
 "http://www.w3.org/Graphics/SVG/1.1/DTD/svg11.dtd">
<!-- Generated by graphviz version 2.30.1 (20150305.2338)
 -->
<!-- Title: G Pages: 1 -->
<svg width="222pt" height="335pt"
 viewBox="0.00 0.00 222.00 335.00" xmlns="http://www.w3.org/2000/svg" xmlns:xlink="http://www.w3.org/1999/xlink">
<g id="graph0" class="graph" transform="scale(1 1) rotate(0) translate(4 331)">
<title>G</title>
<polygon fill="white" stroke="white" points="-4,5 -4,-331 219,-331 219,5 -4,5"/>
<g id="clust1" class="cluster"><title>cluster_0</title>
<polygon fill="none" stroke="black" points="8,-64 8,-283 206,-283 206,-64 8,-64"/>
<text text-anchor="middle" x="107" y="-267.8" font-family="Times,serif" font-size="14.00">Model</text>
</g>
<!-- Model 1 -->
<g id="node1" class="node"><title>Model 1</title>
<ellipse fill="#b2dfee" stroke="#b2dfee" cx="57" cy="-234" rx="40.4202" ry="18"/>
<text text-anchor="middle" x="57" y="-230.3" font-family="Times,serif" font-size="14.00">Model 1</text>
</g>
<!-- Model 2 -->
<g id="node2" class="node"><title>Model 2</title>
<ellipse fill="#b2dfee" stroke="#b2dfee" cx="57" cy="-162" rx="40.4202" ry="18"/>
<text text-anchor="middle" x="57" y="-158.3" font-family="Times,serif" font-size="14.00">Model 2</text>
</g>
<!-- Model 1&#45;&gt;Model 2 -->
<g id="edge1" class="edge"><title>Model 1&#45;&gt;Model 2</title>
<path fill="none" stroke="black" d="M57,-215.697C57,-207.983 57,-198.712 57,-190.112"/>
<polygon fill="black" stroke="black" points="60.5001,-190.104 57,-180.104 53.5001,-190.104 60.5001,-190.104"/>
</g>
<!-- Model 4 -->
<g id="node4" class="node"><title>Model 4</title>
<ellipse fill="#b2dfee" stroke="#b2dfee" cx="107" cy="-90" rx="40.4202" ry="18"/>
<text text-anchor="middle" x="107" y="-86.3" font-family="Times,serif" font-size="14.00">Model 4</text>
</g>
<!-- Model 2&#45;&gt;Model 4 -->
<g id="edge2" class="edge"><title>Model 2&#45;&gt;Model 4</title>
<path fill="none" stroke="black" d="M68.8493,-144.411C74.9516,-135.868 82.5154,-125.278 89.2947,-115.787"/>
<polygon fill="black" stroke="black" points="92.2714,-117.642 95.2358,-107.47 86.5753,-113.573 92.2714,-117.642"/>
</g>
<!-- Model 3 -->
<g id="node3" class="node"><title>Model 3</title>
<ellipse fill="#b2dfee" stroke="#b2dfee" cx="157" cy="-162" rx="40.4202" ry="18"/>
<text text-anchor="middle" x="157" y="-158.3" font-family="Times,serif" font-size="14.00">Model 3</text>
</g>
<!-- Model 3&#45;&gt;Model 4 -->
<g id="edge3" class="edge"><title>Model 3&#45;&gt;Model 4</title>
<path fill="none" stroke="black" d="M145.151,-144.411C139.048,-135.868 131.485,-125.278 124.705,-115.787"/>
<polygon fill="black" stroke="black" points="127.425,-113.573 118.764,-107.47 121.729,-117.642 127.425,-113.573"/>
</g>
<!-- Output -->
<g id="node6" class="node"><title>Output</title>
<ellipse fill="#b2dfee" stroke="#b2dfee" cx="107" cy="-18" rx="35.1455" ry="18"/>
<text text-anchor="middle" x="107" y="-14.3" font-family="Times,serif" font-size="14.00">Output</text>
</g>
<!-- Model 4&#45;&gt;Output -->
<g id="edge7" class="edge"><title>Model 4&#45;&gt;Output</title>
<path fill="none" stroke="black" d="M107,-71.6966C107,-63.9827 107,-54.7125 107,-46.1124"/>
<polygon fill="black" stroke="black" points="110.5,-46.1043 107,-36.1043 103.5,-46.1044 110.5,-46.1043"/>
</g>
<!-- Raw data -->
<g id="node5" class="node"><title>Raw data</title>
<ellipse fill="#b2dfee" stroke="#b2dfee" cx="126" cy="-309" rx="44.2946" ry="18"/>
<text text-anchor="middle" x="126" y="-305.3" font-family="Times,serif" font-size="14.00">Raw data</text>
</g>
<!-- Raw data&#45;&gt;Model 1 -->
<g id="edge4" class="edge"><title>Raw data&#45;&gt;Model 1</title>
<path fill="none" stroke="black" d="M110.687,-291.799C101.485,-282.064 89.6146,-269.505 79.3759,-258.673"/>
<polygon fill="black" stroke="black" points="81.6833,-256.019 72.2705,-251.156 76.5961,-260.827 81.6833,-256.019"/>
</g>
<!-- Raw data&#45;&gt;Model 2 -->
<g id="edge5" class="edge"><title>Raw data&#45;&gt;Model 2</title>
<path fill="none" stroke="black" d="M124.969,-290.806C123.221,-271.604 118.533,-240.065 106,-216 100.18,-204.825 91.3732,-194.252 82.8232,-185.533"/>
<polygon fill="black" stroke="black" points="85.0693,-182.835 75.4574,-178.378 80.1922,-187.856 85.0693,-182.835"/>
</g>
<!-- Raw data&#45;&gt;Model 3 -->
<g id="edge6" class="edge"><title>Raw data&#45;&gt;Model 3</title>
<path fill="none" stroke="black" d="M136.374,-291.449C137.769,-288.703 139.045,-285.828 140,-283 150.378,-252.262 154.422,-215.021 155.997,-190.26"/>
<polygon fill="black" stroke="black" points="159.498,-190.324 156.546,-180.149 152.508,-189.944 159.498,-190.324"/>
</g>
</g>
</svg>
