<?xml version="1.0" encoding="UTF-8" standalone="no"?>
<!DOCTYPE svg PUBLIC "-//W3C//DTD SVG 1.1//EN"
 "http://www.w3.org/Graphics/SVG/1.1/DTD/svg11.dtd">
<!-- Generated by graphviz version 2.30.1 (20150305.2338)
 -->
<!-- Title: composed models Pages: 1 -->
<svg width="266pt" height="263pt"
 viewBox="0.00 0.00 266.00 263.00" xmlns="http://www.w3.org/2000/svg" xmlns:xlink="http://www.w3.org/1999/xlink">
<g id="graph0" class="graph" transform="scale(1 1) rotate(0) translate(4 259)">
<title>composed models</title>
<polygon fill="white" stroke="white" points="-4,5 -4,-259 263,-259 263,5 -4,5"/>
<g id="clust1" class="cluster"><title>cluster_0</title>
<polygon fill="none" stroke="black" points="8,-136 8,-211 125,-211 125,-136 8,-136"/>
<text text-anchor="middle" x="66.5" y="-195.8" font-family="Times,serif" font-size="14.00">env: kipoi&#45;model1</text>
</g>
<g id="clust2" class="cluster"><title>cluster_1</title>
<polygon fill="none" stroke="black" points="133,-136 133,-211 250,-211 250,-136 133,-136"/>
<text text-anchor="middle" x="191.5" y="-195.8" font-family="Times,serif" font-size="14.00">env: kipoi&#45;model2</text>
</g>
<!-- Model 1 -->
<g id="node1" class="node"><title>Model 1</title>
<ellipse fill="#b2dfee" stroke="#b2dfee" cx="76" cy="-162" rx="40.4202" ry="18"/>
<text text-anchor="middle" x="76" y="-158.3" font-family="Times,serif" font-size="14.00">Model 1</text>
</g>
<!-- Model 4 -->
<g id="node4" class="node"><title>Model 4</title>
<ellipse fill="#b2dfee" stroke="#b2dfee" cx="129" cy="-90" rx="40.4202" ry="18"/>
<text text-anchor="middle" x="129" y="-86.3" font-family="Times,serif" font-size="14.00">Model 4</text>
</g>
<!-- Model 1&#45;&gt;Model 4 -->
<g id="edge3" class="edge"><title>Model 1&#45;&gt;Model 4</title>
<path fill="none" stroke="black" d="M88.2925,-144.765C94.8203,-136.143 102.981,-125.365 110.278,-115.727"/>
<polygon fill="black" stroke="black" points="113.16,-117.719 116.406,-107.633 107.579,-113.493 113.16,-117.719"/>
</g>
<!-- Model 2 -->
<g id="node2" class="node"><title>Model 2</title>
<ellipse fill="#b2dfee" stroke="#b2dfee" cx="182" cy="-162" rx="40.4202" ry="18"/>
<text text-anchor="middle" x="182" y="-158.3" font-family="Times,serif" font-size="14.00">Model 2</text>
</g>
<!-- Model 2&#45;&gt;Model 4 -->
<g id="edge4" class="edge"><title>Model 2&#45;&gt;Model 4</title>
<path fill="none" stroke="black" d="M169.708,-144.765C163.18,-136.143 155.019,-125.365 147.722,-115.727"/>
<polygon fill="black" stroke="black" points="150.421,-113.493 141.594,-107.633 144.84,-117.719 150.421,-113.493"/>
</g>
<!-- Raw data -->
<g id="node3" class="node"><title>Raw data</title>
<ellipse fill="#b2dfee" stroke="#b2dfee" cx="129" cy="-237" rx="44.2946" ry="18"/>
<text text-anchor="middle" x="129" y="-233.3" font-family="Times,serif" font-size="14.00">Raw data</text>
</g>
<!-- Raw data&#45;&gt;Model 1 -->
<g id="edge1" class="edge"><title>Raw data&#45;&gt;Model 1</title>
<path fill="none" stroke="black" d="M116.973,-219.435C110.149,-210.036 101.478,-198.093 93.8715,-187.616"/>
<polygon fill="black" stroke="black" points="96.5038,-185.284 87.7964,-179.248 90.8393,-189.396 96.5038,-185.284"/>
</g>
<!-- Raw data&#45;&gt;Model 2 -->
<g id="edge2" class="edge"><title>Raw data&#45;&gt;Model 2</title>
<path fill="none" stroke="black" d="M141.027,-219.435C147.851,-210.036 156.522,-198.093 164.128,-187.616"/>
<polygon fill="black" stroke="black" points="167.161,-189.396 170.204,-179.248 161.496,-185.284 167.161,-189.396"/>
</g>
<!-- Output -->
<g id="node5" class="node"><title>Output</title>
<ellipse fill="#b2dfee" stroke="#b2dfee" cx="129" cy="-18" rx="35.1455" ry="18"/>
<text text-anchor="middle" x="129" y="-14.3" font-family="Times,serif" font-size="14.00">Output</text>
</g>
<!-- Model 4&#45;&gt;Output -->
<g id="edge5" class="edge"><title>Model 4&#45;&gt;Output</title>
<path fill="none" stroke="black" d="M129,-71.6966C129,-63.9827 129,-54.7125 129,-46.1124"/>
<polygon fill="black" stroke="black" points="132.5,-46.1043 129,-36.1043 125.5,-46.1044 132.5,-46.1043"/>
</g>
</g>
</svg>
