<?xml version="1.0" encoding="UTF-8" standalone="no"?>
<!DOCTYPE svg PUBLIC "-//W3C//DTD SVG 1.1//EN"
 "http://www.w3.org/Graphics/SVG/1.1/DTD/svg11.dtd">
<!-- Generated by graphviz version 2.30.1 (20150305.2338)
 -->
<!-- Title: composed models Pages: 1 -->
<svg width="195pt" height="332pt"
 viewBox="0.00 0.00 195.00 332.00" xmlns="http://www.w3.org/2000/svg" xmlns:xlink="http://www.w3.org/1999/xlink">
<g id="graph0" class="graph" transform="scale(1 1) rotate(0) translate(4 328)">
<title>composed models</title>
<polygon fill="white" stroke="white" points="-4,5 -4,-328 192,-328 192,5 -4,5"/>
<!-- Raw data -->
<g id="node1" class="node"><title>Raw data</title>
<ellipse fill="#b2dfee" stroke="#b2dfee" cx="109" cy="-306" rx="44.2946" ry="18"/>
<text text-anchor="middle" x="109" y="-302.3" font-family="Times,serif" font-size="14.00">Raw data</text>
</g>
<!-- Model 1 -->
<g id="node2" class="node"><title>Model 1</title>
<ellipse fill="#b2dfee" stroke="#b2dfee" cx="40" cy="-234" rx="40.4202" ry="18"/>
<text text-anchor="middle" x="40" y="-230.3" font-family="Times,serif" font-size="14.00">Model 1</text>
</g>
<!-- Raw data&#45;&gt;Model 1 -->
<g id="edge1" class="edge"><title>Raw data&#45;&gt;Model 1</title>
<path fill="none" stroke="black" d="M93.3428,-289.116C84.3443,-279.987 72.8787,-268.355 62.8852,-258.217"/>
<polygon fill="black" stroke="black" points="65.1079,-255.486 55.5952,-250.821 60.1226,-260.4 65.1079,-255.486"/>
</g>
<!-- Model 2 -->
<g id="node3" class="node"><title>Model 2</title>
<ellipse fill="#b2dfee" stroke="#b2dfee" cx="47" cy="-162" rx="40.4202" ry="18"/>
<text text-anchor="middle" x="47" y="-158.3" font-family="Times,serif" font-size="14.00">Model 2</text>
</g>
<!-- Raw data&#45;&gt;Model 2 -->
<g id="edge2" class="edge"><title>Raw data&#45;&gt;Model 2</title>
<path fill="none" stroke="black" d="M107.445,-287.859C105.253,-269.37 100.194,-239.436 89,-216 84.0152,-205.563 76.6471,-195.31 69.4683,-186.645"/>
<polygon fill="black" stroke="black" points="71.9226,-184.133 62.7274,-178.87 66.6335,-188.719 71.9226,-184.133"/>
</g>
<!-- Model 3 -->
<g id="node4" class="node"><title>Model 3</title>
<ellipse fill="#b2dfee" stroke="#b2dfee" cx="147" cy="-162" rx="40.4202" ry="18"/>
<text text-anchor="middle" x="147" y="-158.3" font-family="Times,serif" font-size="14.00">Model 3</text>
</g>
<!-- Raw data&#45;&gt;Model 3 -->
<g id="edge3" class="edge"><title>Raw data&#45;&gt;Model 3</title>
<path fill="none" stroke="black" d="M113.584,-287.871C120.089,-263.564 132.063,-218.819 139.771,-190.013"/>
<polygon fill="black" stroke="black" points="143.196,-190.754 142.4,-180.189 136.434,-188.945 143.196,-190.754"/>
</g>
<!-- Model 1&#45;&gt;Model 2 -->
<g id="edge4" class="edge"><title>Model 1&#45;&gt;Model 2</title>
<path fill="none" stroke="black" d="M41.7303,-215.697C42.5017,-207.983 43.4288,-198.712 44.2888,-190.112"/>
<polygon fill="black" stroke="black" points="47.7771,-190.403 45.2896,-180.104 40.8118,-189.706 47.7771,-190.403"/>
</g>
<!-- Model 4 -->
<g id="node5" class="node"><title>Model 4</title>
<ellipse fill="#b2dfee" stroke="#b2dfee" cx="97" cy="-90" rx="40.4202" ry="18"/>
<text text-anchor="middle" x="97" y="-86.3" font-family="Times,serif" font-size="14.00">Model 4</text>
</g>
<!-- Model 2&#45;&gt;Model 4 -->
<g id="edge5" class="edge"><title>Model 2&#45;&gt;Model 4</title>
<path fill="none" stroke="black" d="M58.8493,-144.411C64.9516,-135.868 72.5154,-125.278 79.2947,-115.787"/>
<polygon fill="black" stroke="black" points="82.2714,-117.642 85.2358,-107.47 76.5753,-113.573 82.2714,-117.642"/>
</g>
<!-- Model 3&#45;&gt;Model 4 -->
<g id="edge6" class="edge"><title>Model 3&#45;&gt;Model 4</title>
<path fill="none" stroke="black" d="M135.151,-144.411C129.048,-135.868 121.485,-125.278 114.705,-115.787"/>
<polygon fill="black" stroke="black" points="117.425,-113.573 108.764,-107.47 111.729,-117.642 117.425,-113.573"/>
</g>
<!-- Output -->
<g id="node6" class="node"><title>Output</title>
<ellipse fill="#b2dfee" stroke="#b2dfee" cx="97" cy="-18" rx="35.1455" ry="18"/>
<text text-anchor="middle" x="97" y="-14.3" font-family="Times,serif" font-size="14.00">Output</text>
</g>
<!-- Model 4&#45;&gt;Output -->
<g id="edge7" class="edge"><title>Model 4&#45;&gt;Output</title>
<path fill="none" stroke="black" d="M97,-71.6966C97,-63.9827 97,-54.7125 97,-46.1124"/>
<polygon fill="black" stroke="black" points="100.5,-46.1043 97,-36.1043 93.5001,-46.1044 100.5,-46.1043"/>
</g>
</g>
</svg>
