<?xml version="1.0" encoding="UTF-8" standalone="no"?>
<!DOCTYPE svg PUBLIC "-//W3C//DTD SVG 1.1//EN"
 "http://www.w3.org/Graphics/SVG/1.1/DTD/svg11.dtd">
<!-- Generated by graphviz version 2.38.0 (20140413.2041)
 -->
<!-- Title: G Pages: 1 -->
<svg width="335pt" height="410pt"
 viewBox="0.00 0.00 335.31 410.00" xmlns="http://www.w3.org/2000/svg" xmlns:xlink="http://www.w3.org/1999/xlink">
<g id="graph0" class="graph" transform="scale(1 1) rotate(0) translate(4 406)">
<title>G</title>
<polygon fill="white" stroke="none" points="-4,4 -4,-406 331.305,-406 331.305,4 -4,4"/>
<!-- 139943314344928 -->
<g id="node1" class="node"><title>139943314344928</title>
<polygon fill="none" stroke="black" points="36.9397,-365.5 36.9397,-401.5 158.305,-401.5 158.305,-365.5 36.9397,-365.5"/>
<text text-anchor="middle" x="97.6224" y="-379.3" font-family="Times,serif" font-size="14.00">input1: InputLayer</text>
</g>
<!-- 139943314344816 -->
<g id="node2" class="node"><title>139943314344816</title>
<polygon fill="none" stroke="black" points="0,-292.5 0,-328.5 111.245,-328.5 111.245,-292.5 0,-292.5"/>
<text text-anchor="middle" x="55.6224" y="-306.3" font-family="Times,serif" font-size="14.00">dense_17: Dense</text>
</g>
<!-- 139943314344928&#45;&gt;139943314344816 -->
<g id="edge1" class="edge"><title>139943314344928&#45;&gt;139943314344816</title>
<path fill="none" stroke="black" d="M87.4554,-365.313C82.5028,-356.941 76.4432,-346.697 70.9451,-337.403"/>
<polygon fill="black" stroke="black" points="73.7996,-335.354 65.6958,-328.529 67.7748,-338.918 73.7996,-335.354"/>
</g>
<!-- 139943313113832 -->
<g id="node3" class="node"><title>139943313113832</title>
<polygon fill="none" stroke="black" points="7.7973,-219.5 7.7973,-255.5 187.447,-255.5 187.447,-219.5 7.7973,-219.5"/>
<text text-anchor="middle" x="97.6224" y="-233.3" font-family="Times,serif" font-size="14.00">concatenate_11: Concatenate</text>
</g>
<!-- 139943314344928&#45;&gt;139943313113832 -->
<g id="edge3" class="edge"><title>139943314344928&#45;&gt;139943313113832</title>
<path fill="none" stroke="black" d="M107.166,-365.256C112.263,-355.05 118.013,-341.675 120.622,-329 123.938,-312.893 123.938,-308.107 120.622,-292 118.747,-282.89 115.249,-273.418 111.537,-265.021"/>
<polygon fill="black" stroke="black" points="114.594,-263.298 107.166,-255.744 108.262,-266.282 114.594,-263.298"/>
</g>
<!-- 139943314344816&#45;&gt;139943313113832 -->
<g id="edge2" class="edge"><title>139943314344816&#45;&gt;139943313113832</title>
<path fill="none" stroke="black" d="M65.7894,-292.313C70.742,-283.941 76.8016,-273.697 82.2997,-264.403"/>
<polygon fill="black" stroke="black" points="85.47,-265.918 87.549,-255.529 79.4452,-262.354 85.47,-265.918"/>
</g>
<!-- 139943314343920 -->
<g id="node5" class="node"><title>139943314343920</title>
<polygon fill="none" stroke="black" points="57.6543,-146.5 57.6543,-182.5 173.59,-182.5 173.59,-146.5 57.6543,-146.5"/>
<text text-anchor="middle" x="115.622" y="-160.3" font-family="Times,serif" font-size="14.00">model_21: Model</text>
</g>
<!-- 139943313113832&#45;&gt;139943314343920 -->
<g id="edge4" class="edge"><title>139943313113832&#45;&gt;139943314343920</title>
<path fill="none" stroke="black" d="M101.98,-219.313C104.036,-211.202 106.537,-201.336 108.834,-192.277"/>
<polygon fill="black" stroke="black" points="112.24,-193.082 111.305,-182.529 105.455,-191.362 112.24,-193.082"/>
</g>
<!-- 139943313325304 -->
<g id="node4" class="node"><title>139943313325304</title>
<polygon fill="none" stroke="black" points="205.94,-219.5 205.94,-255.5 327.305,-255.5 327.305,-219.5 205.94,-219.5"/>
<text text-anchor="middle" x="266.622" y="-233.3" font-family="Times,serif" font-size="14.00">input2: InputLayer</text>
</g>
<!-- 139943313324520 -->
<g id="node6" class="node"><title>139943313324520</title>
<polygon fill="none" stroke="black" points="201,-146.5 201,-182.5 312.245,-182.5 312.245,-146.5 201,-146.5"/>
<text text-anchor="middle" x="256.622" y="-160.3" font-family="Times,serif" font-size="14.00">dense_19: Dense</text>
</g>
<!-- 139943313325304&#45;&gt;139943313324520 -->
<g id="edge5" class="edge"><title>139943313325304&#45;&gt;139943313324520</title>
<path fill="none" stroke="black" d="M264.202,-219.313C263.072,-211.289 261.7,-201.547 260.435,-192.569"/>
<polygon fill="black" stroke="black" points="263.881,-191.943 259.021,-182.529 256.95,-192.919 263.881,-191.943"/>
</g>
<!-- 139943313115288 -->
<g id="node7" class="node"><title>139943313115288</title>
<polygon fill="none" stroke="black" points="95.7973,-73.5 95.7973,-109.5 275.447,-109.5 275.447,-73.5 95.7973,-73.5"/>
<text text-anchor="middle" x="185.622" y="-87.3" font-family="Times,serif" font-size="14.00">concatenate_12: Concatenate</text>
</g>
<!-- 139943314343920&#45;&gt;139943313115288 -->
<g id="edge6" class="edge"><title>139943314343920&#45;&gt;139943313115288</title>
<path fill="none" stroke="black" d="M132.567,-146.313C141.338,-137.417 152.191,-126.409 161.791,-116.672"/>
<polygon fill="black" stroke="black" points="164.305,-119.107 168.833,-109.529 159.32,-114.193 164.305,-119.107"/>
</g>
<!-- 139943313324520&#45;&gt;139943313115288 -->
<g id="edge7" class="edge"><title>139943313324520&#45;&gt;139943313115288</title>
<path fill="none" stroke="black" d="M239.435,-146.313C230.54,-137.417 219.532,-126.409 209.794,-116.672"/>
<polygon fill="black" stroke="black" points="212.197,-114.125 202.651,-109.529 207.247,-119.075 212.197,-114.125"/>
</g>
<!-- 139943314343976 -->
<g id="node8" class="node"><title>139943314343976</title>
<polygon fill="none" stroke="black" points="127.654,-0.5 127.654,-36.5 243.59,-36.5 243.59,-0.5 127.654,-0.5"/>
<text text-anchor="middle" x="185.622" y="-14.3" font-family="Times,serif" font-size="14.00">model_23: Model</text>
</g>
<!-- 139943313115288&#45;&gt;139943314343976 -->
<g id="edge8" class="edge"><title>139943313115288&#45;&gt;139943314343976</title>
<path fill="none" stroke="black" d="M185.622,-73.3129C185.622,-65.2895 185.622,-55.5475 185.622,-46.5691"/>
<polygon fill="black" stroke="black" points="189.122,-46.5288 185.622,-36.5288 182.122,-46.5289 189.122,-46.5288"/>
</g>
</g>
</svg>
